%TF.GenerationSoftware,KiCad,Pcbnew,(5.1.9)-1*%
%TF.CreationDate,2021-03-19T17:10:50+05:30*%
%TF.ProjectId,PWM Based DC Motor Speed Controller,50574d20-4261-4736-9564-204443204d6f,rev?*%
%TF.SameCoordinates,Original*%
%TF.FileFunction,Copper,L1,Top*%
%TF.FilePolarity,Positive*%
%FSLAX46Y46*%
G04 Gerber Fmt 4.6, Leading zero omitted, Abs format (unit mm)*
G04 Created by KiCad (PCBNEW (5.1.9)-1) date 2021-03-19 17:10:50*
%MOMM*%
%LPD*%
G01*
G04 APERTURE LIST*
%TA.AperFunction,NonConductor*%
%ADD10C,0.150000*%
%TD*%
%TA.AperFunction,ComponentPad*%
%ADD11C,2.800000*%
%TD*%
%TA.AperFunction,SMDPad,CuDef*%
%ADD12R,1.190000X2.790000*%
%TD*%
%TA.AperFunction,ComponentPad*%
%ADD13O,2.000000X1.905000*%
%TD*%
%TA.AperFunction,ComponentPad*%
%ADD14R,2.000000X1.905000*%
%TD*%
%TA.AperFunction,ComponentPad*%
%ADD15C,1.800000*%
%TD*%
%TA.AperFunction,ComponentPad*%
%ADD16R,1.800000X1.800000*%
%TD*%
%TA.AperFunction,Conductor*%
%ADD17C,0.250000*%
%TD*%
G04 APERTURE END LIST*
D10*
X115644538Y-121372380D02*
X116215967Y-121372380D01*
X115805252Y-122372380D02*
X115930252Y-121372380D01*
X116424300Y-122372380D02*
X116549300Y-121372380D01*
X116489776Y-121848571D02*
X117061205Y-121848571D01*
X116995729Y-122372380D02*
X117120729Y-121372380D01*
X117460014Y-122086666D02*
X117936205Y-122086666D01*
X117329062Y-122372380D02*
X117787395Y-121372380D01*
X117995729Y-122372380D01*
X118329062Y-122372380D02*
X118454062Y-121372380D01*
X118900491Y-122372380D01*
X119025491Y-121372380D01*
X119376681Y-122372380D02*
X119501681Y-121372380D01*
X119948110Y-122372380D02*
X119590967Y-121800952D01*
X120073110Y-121372380D02*
X119430252Y-121943809D01*
X120335014Y-122324761D02*
X120471919Y-122372380D01*
X120710014Y-122372380D01*
X120811205Y-122324761D01*
X120864776Y-122277142D01*
X120924300Y-122181904D01*
X120936205Y-122086666D01*
X120900491Y-121991428D01*
X120858824Y-121943809D01*
X120769538Y-121896190D01*
X120585014Y-121848571D01*
X120495729Y-121800952D01*
X120454062Y-121753333D01*
X120418348Y-121658095D01*
X120430252Y-121562857D01*
X120489776Y-121467619D01*
X120543348Y-121420000D01*
X120644538Y-121372380D01*
X120882633Y-121372380D01*
X121019538Y-121420000D01*
X122073110Y-121372380D02*
X122644538Y-121372380D01*
X122233824Y-122372380D02*
X122358824Y-121372380D01*
X123168348Y-121372380D02*
X123358824Y-121372380D01*
X123448110Y-121420000D01*
X123531443Y-121515238D01*
X123555252Y-121705714D01*
X123513586Y-122039047D01*
X123442157Y-122229523D01*
X123335014Y-122324761D01*
X123233824Y-122372380D01*
X123043348Y-122372380D01*
X122954062Y-122324761D01*
X122870729Y-122229523D01*
X122846919Y-122039047D01*
X122888586Y-121705714D01*
X122960014Y-121515238D01*
X123067157Y-121420000D01*
X123168348Y-121372380D01*
X124644538Y-121372380D02*
X124852872Y-122372380D01*
X125311205Y-121372380D01*
X125835014Y-121372380D02*
X126025491Y-121372380D01*
X126114776Y-121420000D01*
X126198110Y-121515238D01*
X126221919Y-121705714D01*
X126180252Y-122039047D01*
X126108824Y-122229523D01*
X126001681Y-122324761D01*
X125900491Y-122372380D01*
X125710014Y-122372380D01*
X125620729Y-122324761D01*
X125537395Y-122229523D01*
X125513586Y-122039047D01*
X125555252Y-121705714D01*
X125626681Y-121515238D01*
X125733824Y-121420000D01*
X125835014Y-121372380D01*
X127043348Y-122372380D02*
X126567157Y-122372380D01*
X126692157Y-121372380D01*
X127358824Y-121372380D02*
X127930252Y-121372380D01*
X127519538Y-122372380D02*
X127644538Y-121372380D01*
X128204062Y-121848571D02*
X128537395Y-121848571D01*
X128614776Y-122372380D02*
X128138586Y-122372380D01*
X128263586Y-121372380D01*
X128739776Y-121372380D01*
X129614776Y-122372380D02*
X129340967Y-121896190D01*
X129043348Y-122372380D02*
X129168348Y-121372380D01*
X129549300Y-121372380D01*
X129638586Y-121420000D01*
X129680252Y-121467619D01*
X129715967Y-121562857D01*
X129698110Y-121705714D01*
X129638586Y-121800952D01*
X129585014Y-121848571D01*
X129483824Y-121896190D01*
X129102872Y-121896190D01*
X130031443Y-122086666D02*
X130507633Y-122086666D01*
X129900491Y-122372380D02*
X130358824Y-121372380D01*
X130567157Y-122372380D01*
X131650491Y-122086666D02*
X132126681Y-122086666D01*
X131519538Y-122372380D02*
X131977872Y-121372380D01*
X132186205Y-122372380D01*
X132519538Y-122372380D02*
X132644538Y-121372380D01*
X133090967Y-122372380D01*
X133215967Y-121372380D01*
X133567157Y-122372380D02*
X133692157Y-121372380D01*
X133930252Y-121372380D01*
X134067157Y-121420000D01*
X134150491Y-121515238D01*
X134186205Y-121610476D01*
X134210014Y-121800952D01*
X134192157Y-121943809D01*
X134120729Y-122134285D01*
X134061205Y-122229523D01*
X133954062Y-122324761D01*
X133805252Y-122372380D01*
X133567157Y-122372380D01*
X135287395Y-122324761D02*
X135424300Y-122372380D01*
X135662395Y-122372380D01*
X135763586Y-122324761D01*
X135817157Y-122277142D01*
X135876681Y-122181904D01*
X135888586Y-122086666D01*
X135852872Y-121991428D01*
X135811205Y-121943809D01*
X135721919Y-121896190D01*
X135537395Y-121848571D01*
X135448110Y-121800952D01*
X135406443Y-121753333D01*
X135370729Y-121658095D01*
X135382633Y-121562857D01*
X135442157Y-121467619D01*
X135495729Y-121420000D01*
X135596919Y-121372380D01*
X135835014Y-121372380D01*
X135971919Y-121420000D01*
X136281443Y-122372380D02*
X136406443Y-121372380D01*
X136650491Y-122086666D01*
X137073110Y-121372380D01*
X136948110Y-122372380D01*
X137412395Y-122086666D02*
X137888586Y-122086666D01*
X137281443Y-122372380D02*
X137739776Y-121372380D01*
X137948110Y-122372380D01*
X138852872Y-122372380D02*
X138579062Y-121896190D01*
X138281443Y-122372380D02*
X138406443Y-121372380D01*
X138787395Y-121372380D01*
X138876681Y-121420000D01*
X138918348Y-121467619D01*
X138954062Y-121562857D01*
X138936205Y-121705714D01*
X138876681Y-121800952D01*
X138823110Y-121848571D01*
X138721919Y-121896190D01*
X138340967Y-121896190D01*
X139263586Y-121372380D02*
X139835014Y-121372380D01*
X139424300Y-122372380D02*
X139549300Y-121372380D01*
X140043348Y-122372380D02*
X140168348Y-121372380D01*
X140519538Y-122372380D02*
X140644538Y-121372380D01*
X141090967Y-122372380D01*
X141215967Y-121372380D01*
X141549300Y-121372380D02*
X142120729Y-121372380D01*
X141710014Y-122372380D02*
X141835014Y-121372380D01*
X142394538Y-121848571D02*
X142727872Y-121848571D01*
X142805252Y-122372380D02*
X142329062Y-122372380D01*
X142454062Y-121372380D01*
X142930252Y-121372380D01*
X143805252Y-122372380D02*
X143531443Y-121896190D01*
X143233824Y-122372380D02*
X143358824Y-121372380D01*
X143739776Y-121372380D01*
X143829062Y-121420000D01*
X143870729Y-121467619D01*
X143906443Y-121562857D01*
X143888586Y-121705714D01*
X143829062Y-121800952D01*
X143775491Y-121848571D01*
X143674300Y-121896190D01*
X143293348Y-121896190D01*
X144233824Y-122372380D02*
X144358824Y-121372380D01*
X144805252Y-122372380D01*
X144930252Y-121372380D01*
X145311205Y-121372380D02*
X145977872Y-121372380D01*
X145186205Y-122372380D01*
X145852872Y-122372380D01*
X118929047Y-117737380D02*
X118929047Y-116737380D01*
X119167142Y-116737380D01*
X119309999Y-116785000D01*
X119405238Y-116880238D01*
X119452857Y-116975476D01*
X119500476Y-117165952D01*
X119500476Y-117308809D01*
X119452857Y-117499285D01*
X119405238Y-117594523D01*
X119309999Y-117689761D01*
X119167142Y-117737380D01*
X118929047Y-117737380D01*
X120309999Y-117689761D02*
X120214761Y-117737380D01*
X120024285Y-117737380D01*
X119929047Y-117689761D01*
X119881428Y-117594523D01*
X119881428Y-117213571D01*
X119929047Y-117118333D01*
X120024285Y-117070714D01*
X120214761Y-117070714D01*
X120309999Y-117118333D01*
X120357619Y-117213571D01*
X120357619Y-117308809D01*
X119881428Y-117404047D01*
X120738571Y-117689761D02*
X120833809Y-117737380D01*
X121024285Y-117737380D01*
X121119523Y-117689761D01*
X121167142Y-117594523D01*
X121167142Y-117546904D01*
X121119523Y-117451666D01*
X121024285Y-117404047D01*
X120881428Y-117404047D01*
X120786190Y-117356428D01*
X120738571Y-117261190D01*
X120738571Y-117213571D01*
X120786190Y-117118333D01*
X120881428Y-117070714D01*
X121024285Y-117070714D01*
X121119523Y-117118333D01*
X121595714Y-117737380D02*
X121595714Y-117070714D01*
X121595714Y-116737380D02*
X121548095Y-116785000D01*
X121595714Y-116832619D01*
X121643333Y-116785000D01*
X121595714Y-116737380D01*
X121595714Y-116832619D01*
X122500476Y-117070714D02*
X122500476Y-117880238D01*
X122452857Y-117975476D01*
X122405238Y-118023095D01*
X122309999Y-118070714D01*
X122167142Y-118070714D01*
X122071904Y-118023095D01*
X122500476Y-117689761D02*
X122405238Y-117737380D01*
X122214761Y-117737380D01*
X122119523Y-117689761D01*
X122071904Y-117642142D01*
X122024285Y-117546904D01*
X122024285Y-117261190D01*
X122071904Y-117165952D01*
X122119523Y-117118333D01*
X122214761Y-117070714D01*
X122405238Y-117070714D01*
X122500476Y-117118333D01*
X122976666Y-117070714D02*
X122976666Y-117737380D01*
X122976666Y-117165952D02*
X123024285Y-117118333D01*
X123119523Y-117070714D01*
X123262380Y-117070714D01*
X123357619Y-117118333D01*
X123405238Y-117213571D01*
X123405238Y-117737380D01*
X124262380Y-117689761D02*
X124167142Y-117737380D01*
X123976666Y-117737380D01*
X123881428Y-117689761D01*
X123833809Y-117594523D01*
X123833809Y-117213571D01*
X123881428Y-117118333D01*
X123976666Y-117070714D01*
X124167142Y-117070714D01*
X124262380Y-117118333D01*
X124310000Y-117213571D01*
X124310000Y-117308809D01*
X123833809Y-117404047D01*
X125167142Y-117737380D02*
X125167142Y-116737380D01*
X125167142Y-117689761D02*
X125071904Y-117737380D01*
X124881428Y-117737380D01*
X124786190Y-117689761D01*
X124738571Y-117642142D01*
X124690952Y-117546904D01*
X124690952Y-117261190D01*
X124738571Y-117165952D01*
X124786190Y-117118333D01*
X124881428Y-117070714D01*
X125071904Y-117070714D01*
X125167142Y-117118333D01*
X126405238Y-117737380D02*
X126405238Y-116737380D01*
X126405238Y-117118333D02*
X126500476Y-117070714D01*
X126690952Y-117070714D01*
X126786190Y-117118333D01*
X126833809Y-117165952D01*
X126881428Y-117261190D01*
X126881428Y-117546904D01*
X126833809Y-117642142D01*
X126786190Y-117689761D01*
X126690952Y-117737380D01*
X126500476Y-117737380D01*
X126405238Y-117689761D01*
X127214761Y-117070714D02*
X127452857Y-117737380D01*
X127690952Y-117070714D02*
X127452857Y-117737380D01*
X127357619Y-117975476D01*
X127310000Y-118023095D01*
X127214761Y-118070714D01*
X128690952Y-116737380D02*
X129024285Y-117737380D01*
X129357619Y-116737380D01*
X129690952Y-117737380D02*
X129690952Y-117070714D01*
X129690952Y-116737380D02*
X129643333Y-116785000D01*
X129690952Y-116832619D01*
X129738571Y-116785000D01*
X129690952Y-116737380D01*
X129690952Y-116832619D01*
X130167142Y-117070714D02*
X130167142Y-117737380D01*
X130167142Y-117165952D02*
X130214761Y-117118333D01*
X130309999Y-117070714D01*
X130452857Y-117070714D01*
X130548095Y-117118333D01*
X130595714Y-117213571D01*
X130595714Y-117737380D01*
X131500476Y-117737380D02*
X131500476Y-117213571D01*
X131452857Y-117118333D01*
X131357619Y-117070714D01*
X131167142Y-117070714D01*
X131071904Y-117118333D01*
X131500476Y-117689761D02*
X131405238Y-117737380D01*
X131167142Y-117737380D01*
X131071904Y-117689761D01*
X131024285Y-117594523D01*
X131024285Y-117499285D01*
X131071904Y-117404047D01*
X131167142Y-117356428D01*
X131405238Y-117356428D01*
X131500476Y-117308809D01*
X131881428Y-117070714D02*
X132119523Y-117737380D01*
X132357619Y-117070714D02*
X132119523Y-117737380D01*
X132024285Y-117975476D01*
X131976666Y-118023095D01*
X131881428Y-118070714D01*
X134071904Y-117642142D02*
X134024285Y-117689761D01*
X133881428Y-117737380D01*
X133786190Y-117737380D01*
X133643333Y-117689761D01*
X133548095Y-117594523D01*
X133500476Y-117499285D01*
X133452857Y-117308809D01*
X133452857Y-117165952D01*
X133500476Y-116975476D01*
X133548095Y-116880238D01*
X133643333Y-116785000D01*
X133786190Y-116737380D01*
X133881428Y-116737380D01*
X134024285Y-116785000D01*
X134071904Y-116832619D01*
X134500476Y-117737380D02*
X134500476Y-116737380D01*
X134929047Y-117737380D02*
X134929047Y-117213571D01*
X134881428Y-117118333D01*
X134786190Y-117070714D01*
X134643333Y-117070714D01*
X134548095Y-117118333D01*
X134500476Y-117165952D01*
X135405238Y-117737380D02*
X135405238Y-117070714D01*
X135405238Y-116737380D02*
X135357619Y-116785000D01*
X135405238Y-116832619D01*
X135452857Y-116785000D01*
X135405238Y-116737380D01*
X135405238Y-116832619D01*
X135881428Y-117070714D02*
X135881428Y-117737380D01*
X135881428Y-117165952D02*
X135929047Y-117118333D01*
X136024285Y-117070714D01*
X136167142Y-117070714D01*
X136262380Y-117118333D01*
X136310000Y-117213571D01*
X136310000Y-117737380D01*
X136643333Y-117070714D02*
X137024285Y-117070714D01*
X136786190Y-116737380D02*
X136786190Y-117594523D01*
X136833809Y-117689761D01*
X136929047Y-117737380D01*
X137024285Y-117737380D01*
X137357619Y-117737380D02*
X137357619Y-116737380D01*
X137786190Y-117737380D02*
X137786190Y-117213571D01*
X137738571Y-117118333D01*
X137643333Y-117070714D01*
X137500476Y-117070714D01*
X137405238Y-117118333D01*
X137357619Y-117165952D01*
X138690952Y-117737380D02*
X138690952Y-117213571D01*
X138643333Y-117118333D01*
X138548095Y-117070714D01*
X138357619Y-117070714D01*
X138262380Y-117118333D01*
X138690952Y-117689761D02*
X138595714Y-117737380D01*
X138357619Y-117737380D01*
X138262380Y-117689761D01*
X138214761Y-117594523D01*
X138214761Y-117499285D01*
X138262380Y-117404047D01*
X138357619Y-117356428D01*
X138595714Y-117356428D01*
X138690952Y-117308809D01*
X140500476Y-117642142D02*
X140452857Y-117689761D01*
X140310000Y-117737380D01*
X140214761Y-117737380D01*
X140071904Y-117689761D01*
X139976666Y-117594523D01*
X139929047Y-117499285D01*
X139881428Y-117308809D01*
X139881428Y-117165952D01*
X139929047Y-116975476D01*
X139976666Y-116880238D01*
X140071904Y-116785000D01*
X140214761Y-116737380D01*
X140310000Y-116737380D01*
X140452857Y-116785000D01*
X140500476Y-116832619D01*
X141262380Y-117213571D02*
X141405238Y-117261190D01*
X141452857Y-117308809D01*
X141500476Y-117404047D01*
X141500476Y-117546904D01*
X141452857Y-117642142D01*
X141405238Y-117689761D01*
X141310000Y-117737380D01*
X140929047Y-117737380D01*
X140929047Y-116737380D01*
X141262380Y-116737380D01*
X141357619Y-116785000D01*
X141405238Y-116832619D01*
X141452857Y-116927857D01*
X141452857Y-117023095D01*
X141405238Y-117118333D01*
X141357619Y-117165952D01*
X141262380Y-117213571D01*
X140929047Y-117213571D01*
X141929047Y-117737380D02*
X141929047Y-116737380D01*
X142262380Y-116737380D02*
X142833809Y-116737380D01*
X142548095Y-117737380D02*
X142548095Y-116737380D01*
X116286190Y-119387380D02*
X116286190Y-118387380D01*
X116667142Y-118387380D01*
X116762380Y-118435000D01*
X116809999Y-118482619D01*
X116857619Y-118577857D01*
X116857619Y-118720714D01*
X116809999Y-118815952D01*
X116762380Y-118863571D01*
X116667142Y-118911190D01*
X116286190Y-118911190D01*
X117190952Y-118387380D02*
X117429047Y-119387380D01*
X117619523Y-118673095D01*
X117809999Y-119387380D01*
X118048095Y-118387380D01*
X118429047Y-119387380D02*
X118429047Y-118387380D01*
X118762380Y-119101666D01*
X119095714Y-118387380D01*
X119095714Y-119387380D01*
X120333809Y-119387380D02*
X120333809Y-118387380D01*
X120333809Y-118768333D02*
X120429047Y-118720714D01*
X120619523Y-118720714D01*
X120714761Y-118768333D01*
X120762380Y-118815952D01*
X120809999Y-118911190D01*
X120809999Y-119196904D01*
X120762380Y-119292142D01*
X120714761Y-119339761D01*
X120619523Y-119387380D01*
X120429047Y-119387380D01*
X120333809Y-119339761D01*
X121667142Y-119387380D02*
X121667142Y-118863571D01*
X121619523Y-118768333D01*
X121524285Y-118720714D01*
X121333809Y-118720714D01*
X121238571Y-118768333D01*
X121667142Y-119339761D02*
X121571904Y-119387380D01*
X121333809Y-119387380D01*
X121238571Y-119339761D01*
X121190952Y-119244523D01*
X121190952Y-119149285D01*
X121238571Y-119054047D01*
X121333809Y-119006428D01*
X121571904Y-119006428D01*
X121667142Y-118958809D01*
X122095714Y-119339761D02*
X122190952Y-119387380D01*
X122381428Y-119387380D01*
X122476666Y-119339761D01*
X122524285Y-119244523D01*
X122524285Y-119196904D01*
X122476666Y-119101666D01*
X122381428Y-119054047D01*
X122238571Y-119054047D01*
X122143333Y-119006428D01*
X122095714Y-118911190D01*
X122095714Y-118863571D01*
X122143333Y-118768333D01*
X122238571Y-118720714D01*
X122381428Y-118720714D01*
X122476666Y-118768333D01*
X123333809Y-119339761D02*
X123238571Y-119387380D01*
X123048095Y-119387380D01*
X122952857Y-119339761D01*
X122905238Y-119244523D01*
X122905238Y-118863571D01*
X122952857Y-118768333D01*
X123048095Y-118720714D01*
X123238571Y-118720714D01*
X123333809Y-118768333D01*
X123381428Y-118863571D01*
X123381428Y-118958809D01*
X122905238Y-119054047D01*
X124238571Y-119387380D02*
X124238571Y-118387380D01*
X124238571Y-119339761D02*
X124143333Y-119387380D01*
X123952857Y-119387380D01*
X123857619Y-119339761D01*
X123809999Y-119292142D01*
X123762380Y-119196904D01*
X123762380Y-118911190D01*
X123809999Y-118815952D01*
X123857619Y-118768333D01*
X123952857Y-118720714D01*
X124143333Y-118720714D01*
X124238571Y-118768333D01*
X125476666Y-119387380D02*
X125476666Y-118387380D01*
X125714761Y-118387380D01*
X125857619Y-118435000D01*
X125952857Y-118530238D01*
X126000476Y-118625476D01*
X126048095Y-118815952D01*
X126048095Y-118958809D01*
X126000476Y-119149285D01*
X125952857Y-119244523D01*
X125857619Y-119339761D01*
X125714761Y-119387380D01*
X125476666Y-119387380D01*
X127048095Y-119292142D02*
X127000476Y-119339761D01*
X126857619Y-119387380D01*
X126762380Y-119387380D01*
X126619523Y-119339761D01*
X126524285Y-119244523D01*
X126476666Y-119149285D01*
X126429047Y-118958809D01*
X126429047Y-118815952D01*
X126476666Y-118625476D01*
X126524285Y-118530238D01*
X126619523Y-118435000D01*
X126762380Y-118387380D01*
X126857619Y-118387380D01*
X127000476Y-118435000D01*
X127048095Y-118482619D01*
X128238571Y-119387380D02*
X128238571Y-118387380D01*
X128571904Y-119101666D01*
X128905238Y-118387380D01*
X128905238Y-119387380D01*
X129524285Y-119387380D02*
X129429047Y-119339761D01*
X129381428Y-119292142D01*
X129333809Y-119196904D01*
X129333809Y-118911190D01*
X129381428Y-118815952D01*
X129429047Y-118768333D01*
X129524285Y-118720714D01*
X129667142Y-118720714D01*
X129762380Y-118768333D01*
X129809999Y-118815952D01*
X129857619Y-118911190D01*
X129857619Y-119196904D01*
X129809999Y-119292142D01*
X129762380Y-119339761D01*
X129667142Y-119387380D01*
X129524285Y-119387380D01*
X130143333Y-118720714D02*
X130524285Y-118720714D01*
X130286190Y-118387380D02*
X130286190Y-119244523D01*
X130333809Y-119339761D01*
X130429047Y-119387380D01*
X130524285Y-119387380D01*
X131000476Y-119387380D02*
X130905238Y-119339761D01*
X130857619Y-119292142D01*
X130809999Y-119196904D01*
X130809999Y-118911190D01*
X130857619Y-118815952D01*
X130905238Y-118768333D01*
X131000476Y-118720714D01*
X131143333Y-118720714D01*
X131238571Y-118768333D01*
X131286190Y-118815952D01*
X131333809Y-118911190D01*
X131333809Y-119196904D01*
X131286190Y-119292142D01*
X131238571Y-119339761D01*
X131143333Y-119387380D01*
X131000476Y-119387380D01*
X131762380Y-119387380D02*
X131762380Y-118720714D01*
X131762380Y-118911190D02*
X131809999Y-118815952D01*
X131857619Y-118768333D01*
X131952857Y-118720714D01*
X132048095Y-118720714D01*
X133095714Y-119339761D02*
X133238571Y-119387380D01*
X133476666Y-119387380D01*
X133571904Y-119339761D01*
X133619523Y-119292142D01*
X133667142Y-119196904D01*
X133667142Y-119101666D01*
X133619523Y-119006428D01*
X133571904Y-118958809D01*
X133476666Y-118911190D01*
X133286190Y-118863571D01*
X133190952Y-118815952D01*
X133143333Y-118768333D01*
X133095714Y-118673095D01*
X133095714Y-118577857D01*
X133143333Y-118482619D01*
X133190952Y-118435000D01*
X133286190Y-118387380D01*
X133524285Y-118387380D01*
X133667142Y-118435000D01*
X134095714Y-118720714D02*
X134095714Y-119720714D01*
X134095714Y-118768333D02*
X134190952Y-118720714D01*
X134381428Y-118720714D01*
X134476666Y-118768333D01*
X134524285Y-118815952D01*
X134571904Y-118911190D01*
X134571904Y-119196904D01*
X134524285Y-119292142D01*
X134476666Y-119339761D01*
X134381428Y-119387380D01*
X134190952Y-119387380D01*
X134095714Y-119339761D01*
X135381428Y-119339761D02*
X135286190Y-119387380D01*
X135095714Y-119387380D01*
X135000476Y-119339761D01*
X134952857Y-119244523D01*
X134952857Y-118863571D01*
X135000476Y-118768333D01*
X135095714Y-118720714D01*
X135286190Y-118720714D01*
X135381428Y-118768333D01*
X135429047Y-118863571D01*
X135429047Y-118958809D01*
X134952857Y-119054047D01*
X136238571Y-119339761D02*
X136143333Y-119387380D01*
X135952857Y-119387380D01*
X135857619Y-119339761D01*
X135809999Y-119244523D01*
X135809999Y-118863571D01*
X135857619Y-118768333D01*
X135952857Y-118720714D01*
X136143333Y-118720714D01*
X136238571Y-118768333D01*
X136286190Y-118863571D01*
X136286190Y-118958809D01*
X135809999Y-119054047D01*
X137143333Y-119387380D02*
X137143333Y-118387380D01*
X137143333Y-119339761D02*
X137048095Y-119387380D01*
X136857619Y-119387380D01*
X136762380Y-119339761D01*
X136714761Y-119292142D01*
X136667142Y-119196904D01*
X136667142Y-118911190D01*
X136714761Y-118815952D01*
X136762380Y-118768333D01*
X136857619Y-118720714D01*
X137048095Y-118720714D01*
X137143333Y-118768333D01*
X138952857Y-119292142D02*
X138905238Y-119339761D01*
X138762380Y-119387380D01*
X138667142Y-119387380D01*
X138524285Y-119339761D01*
X138429047Y-119244523D01*
X138381428Y-119149285D01*
X138333809Y-118958809D01*
X138333809Y-118815952D01*
X138381428Y-118625476D01*
X138429047Y-118530238D01*
X138524285Y-118435000D01*
X138667142Y-118387380D01*
X138762380Y-118387380D01*
X138905238Y-118435000D01*
X138952857Y-118482619D01*
X139524285Y-119387380D02*
X139429047Y-119339761D01*
X139381428Y-119292142D01*
X139333809Y-119196904D01*
X139333809Y-118911190D01*
X139381428Y-118815952D01*
X139429047Y-118768333D01*
X139524285Y-118720714D01*
X139667142Y-118720714D01*
X139762380Y-118768333D01*
X139809999Y-118815952D01*
X139857619Y-118911190D01*
X139857619Y-119196904D01*
X139809999Y-119292142D01*
X139762380Y-119339761D01*
X139667142Y-119387380D01*
X139524285Y-119387380D01*
X140286190Y-118720714D02*
X140286190Y-119387380D01*
X140286190Y-118815952D02*
X140333809Y-118768333D01*
X140429047Y-118720714D01*
X140571904Y-118720714D01*
X140667142Y-118768333D01*
X140714761Y-118863571D01*
X140714761Y-119387380D01*
X141048095Y-118720714D02*
X141429047Y-118720714D01*
X141190952Y-118387380D02*
X141190952Y-119244523D01*
X141238571Y-119339761D01*
X141333809Y-119387380D01*
X141429047Y-119387380D01*
X141762380Y-119387380D02*
X141762380Y-118720714D01*
X141762380Y-118911190D02*
X141809999Y-118815952D01*
X141857619Y-118768333D01*
X141952857Y-118720714D01*
X142048095Y-118720714D01*
X142524285Y-119387380D02*
X142429047Y-119339761D01*
X142381428Y-119292142D01*
X142333809Y-119196904D01*
X142333809Y-118911190D01*
X142381428Y-118815952D01*
X142429047Y-118768333D01*
X142524285Y-118720714D01*
X142667142Y-118720714D01*
X142762380Y-118768333D01*
X142809999Y-118815952D01*
X142857619Y-118911190D01*
X142857619Y-119196904D01*
X142809999Y-119292142D01*
X142762380Y-119339761D01*
X142667142Y-119387380D01*
X142524285Y-119387380D01*
X143429047Y-119387380D02*
X143333809Y-119339761D01*
X143286190Y-119244523D01*
X143286190Y-118387380D01*
X143952857Y-119387380D02*
X143857619Y-119339761D01*
X143809999Y-119244523D01*
X143809999Y-118387380D01*
X144714761Y-119339761D02*
X144619523Y-119387380D01*
X144429047Y-119387380D01*
X144333809Y-119339761D01*
X144286190Y-119244523D01*
X144286190Y-118863571D01*
X144333809Y-118768333D01*
X144429047Y-118720714D01*
X144619523Y-118720714D01*
X144714761Y-118768333D01*
X144762380Y-118863571D01*
X144762380Y-118958809D01*
X144286190Y-119054047D01*
X145190952Y-119387380D02*
X145190952Y-118720714D01*
X145190952Y-118911190D02*
X145238571Y-118815952D01*
X145286190Y-118768333D01*
X145381428Y-118720714D01*
X145476666Y-118720714D01*
%TO.P,U1,8*%
%TO.N,/VCC*%
%TA.AperFunction,SMDPad,CuDef*%
G36*
G01*
X130580000Y-100815000D02*
X130580000Y-101115000D01*
G75*
G02*
X130430000Y-101265000I-150000J0D01*
G01*
X128780000Y-101265000D01*
G75*
G02*
X128630000Y-101115000I0J150000D01*
G01*
X128630000Y-100815000D01*
G75*
G02*
X128780000Y-100665000I150000J0D01*
G01*
X130430000Y-100665000D01*
G75*
G02*
X130580000Y-100815000I0J-150000D01*
G01*
G37*
%TD.AperFunction*%
%TO.P,U1,7*%
%TO.N,Net-(C2-Pad1)*%
%TA.AperFunction,SMDPad,CuDef*%
G36*
G01*
X130580000Y-99545000D02*
X130580000Y-99845000D01*
G75*
G02*
X130430000Y-99995000I-150000J0D01*
G01*
X128780000Y-99995000D01*
G75*
G02*
X128630000Y-99845000I0J150000D01*
G01*
X128630000Y-99545000D01*
G75*
G02*
X128780000Y-99395000I150000J0D01*
G01*
X130430000Y-99395000D01*
G75*
G02*
X130580000Y-99545000I0J-150000D01*
G01*
G37*
%TD.AperFunction*%
%TO.P,U1,6*%
%TO.N,/2D*%
%TA.AperFunction,SMDPad,CuDef*%
G36*
G01*
X130580000Y-98275000D02*
X130580000Y-98575000D01*
G75*
G02*
X130430000Y-98725000I-150000J0D01*
G01*
X128780000Y-98725000D01*
G75*
G02*
X128630000Y-98575000I0J150000D01*
G01*
X128630000Y-98275000D01*
G75*
G02*
X128780000Y-98125000I150000J0D01*
G01*
X130430000Y-98125000D01*
G75*
G02*
X130580000Y-98275000I0J-150000D01*
G01*
G37*
%TD.AperFunction*%
%TO.P,U1,5*%
%TO.N,/C1*%
%TA.AperFunction,SMDPad,CuDef*%
G36*
G01*
X130580000Y-97005000D02*
X130580000Y-97305000D01*
G75*
G02*
X130430000Y-97455000I-150000J0D01*
G01*
X128780000Y-97455000D01*
G75*
G02*
X128630000Y-97305000I0J150000D01*
G01*
X128630000Y-97005000D01*
G75*
G02*
X128780000Y-96855000I150000J0D01*
G01*
X130430000Y-96855000D01*
G75*
G02*
X130580000Y-97005000I0J-150000D01*
G01*
G37*
%TD.AperFunction*%
%TO.P,U1,4*%
%TO.N,/VCC*%
%TA.AperFunction,SMDPad,CuDef*%
G36*
G01*
X135530000Y-97005000D02*
X135530000Y-97305000D01*
G75*
G02*
X135380000Y-97455000I-150000J0D01*
G01*
X133730000Y-97455000D01*
G75*
G02*
X133580000Y-97305000I0J150000D01*
G01*
X133580000Y-97005000D01*
G75*
G02*
X133730000Y-96855000I150000J0D01*
G01*
X135380000Y-96855000D01*
G75*
G02*
X135530000Y-97005000I0J-150000D01*
G01*
G37*
%TD.AperFunction*%
%TO.P,U1,3*%
%TO.N,Net-(Q1-Pad1)*%
%TA.AperFunction,SMDPad,CuDef*%
G36*
G01*
X135530000Y-98275000D02*
X135530000Y-98575000D01*
G75*
G02*
X135380000Y-98725000I-150000J0D01*
G01*
X133730000Y-98725000D01*
G75*
G02*
X133580000Y-98575000I0J150000D01*
G01*
X133580000Y-98275000D01*
G75*
G02*
X133730000Y-98125000I150000J0D01*
G01*
X135380000Y-98125000D01*
G75*
G02*
X135530000Y-98275000I0J-150000D01*
G01*
G37*
%TD.AperFunction*%
%TO.P,U1,2*%
%TO.N,/VCC*%
%TA.AperFunction,SMDPad,CuDef*%
G36*
G01*
X135530000Y-99545000D02*
X135530000Y-99845000D01*
G75*
G02*
X135380000Y-99995000I-150000J0D01*
G01*
X133730000Y-99995000D01*
G75*
G02*
X133580000Y-99845000I0J150000D01*
G01*
X133580000Y-99545000D01*
G75*
G02*
X133730000Y-99395000I150000J0D01*
G01*
X135380000Y-99395000D01*
G75*
G02*
X135530000Y-99545000I0J-150000D01*
G01*
G37*
%TD.AperFunction*%
%TO.P,U1,1*%
%TO.N,Net-(C1-Pad2)*%
%TA.AperFunction,SMDPad,CuDef*%
G36*
G01*
X135530000Y-100815000D02*
X135530000Y-101115000D01*
G75*
G02*
X135380000Y-101265000I-150000J0D01*
G01*
X133730000Y-101265000D01*
G75*
G02*
X133580000Y-101115000I0J150000D01*
G01*
X133580000Y-100815000D01*
G75*
G02*
X133730000Y-100665000I150000J0D01*
G01*
X135380000Y-100665000D01*
G75*
G02*
X135530000Y-100815000I0J-150000D01*
G01*
G37*
%TD.AperFunction*%
%TD*%
D11*
%TO.P,TP2,1*%
%TO.N,Net-(C1-Pad2)*%
X91440000Y-96520000D03*
%TD*%
%TO.P,TP1,1*%
%TO.N,Net-(D1-Pad2)*%
X91440000Y-87630000D03*
%TD*%
D12*
%TO.P,RV1,3*%
%TO.N,Net-(D2-Pad1)*%
X151130000Y-96520000D03*
%TO.P,RV1,2*%
%TO.N,Net-(C2-Pad1)*%
X153670000Y-101350000D03*
%TO.P,RV1,1*%
%TO.N,Net-(D3-Pad2)*%
X156210000Y-96520000D03*
%TD*%
%TO.P,R3,2*%
%TO.N,Net-(C1-Pad2)*%
%TA.AperFunction,SMDPad,CuDef*%
G36*
G01*
X163204999Y-101422500D02*
X164455001Y-101422500D01*
G75*
G02*
X164705000Y-101672499I0J-249999D01*
G01*
X164705000Y-102297501D01*
G75*
G02*
X164455001Y-102547500I-249999J0D01*
G01*
X163204999Y-102547500D01*
G75*
G02*
X162955000Y-102297501I0J249999D01*
G01*
X162955000Y-101672499D01*
G75*
G02*
X163204999Y-101422500I249999J0D01*
G01*
G37*
%TD.AperFunction*%
%TO.P,R3,1*%
%TO.N,Net-(Q1-Pad1)*%
%TA.AperFunction,SMDPad,CuDef*%
G36*
G01*
X163204999Y-98497500D02*
X164455001Y-98497500D01*
G75*
G02*
X164705000Y-98747499I0J-249999D01*
G01*
X164705000Y-99372501D01*
G75*
G02*
X164455001Y-99622500I-249999J0D01*
G01*
X163204999Y-99622500D01*
G75*
G02*
X162955000Y-99372501I0J249999D01*
G01*
X162955000Y-98747499D01*
G75*
G02*
X163204999Y-98497500I249999J0D01*
G01*
G37*
%TD.AperFunction*%
%TD*%
%TO.P,R2,2*%
%TO.N,/2D*%
%TA.AperFunction,SMDPad,CuDef*%
G36*
G01*
X140407500Y-80635001D02*
X140407500Y-79384999D01*
G75*
G02*
X140657499Y-79135000I249999J0D01*
G01*
X141282501Y-79135000D01*
G75*
G02*
X141532500Y-79384999I0J-249999D01*
G01*
X141532500Y-80635001D01*
G75*
G02*
X141282501Y-80885000I-249999J0D01*
G01*
X140657499Y-80885000D01*
G75*
G02*
X140407500Y-80635001I0J249999D01*
G01*
G37*
%TD.AperFunction*%
%TO.P,R2,1*%
%TO.N,Net-(D1-Pad2)*%
%TA.AperFunction,SMDPad,CuDef*%
G36*
G01*
X137482500Y-80635001D02*
X137482500Y-79384999D01*
G75*
G02*
X137732499Y-79135000I249999J0D01*
G01*
X138357501Y-79135000D01*
G75*
G02*
X138607500Y-79384999I0J-249999D01*
G01*
X138607500Y-80635001D01*
G75*
G02*
X138357501Y-80885000I-249999J0D01*
G01*
X137732499Y-80885000D01*
G75*
G02*
X137482500Y-80635001I0J249999D01*
G01*
G37*
%TD.AperFunction*%
%TD*%
%TO.P,R1,2*%
%TO.N,Net-(R1-Pad2)*%
%TA.AperFunction,SMDPad,CuDef*%
G36*
G01*
X111115001Y-89270000D02*
X109864999Y-89270000D01*
G75*
G02*
X109615000Y-89020001I0J249999D01*
G01*
X109615000Y-88394999D01*
G75*
G02*
X109864999Y-88145000I249999J0D01*
G01*
X111115001Y-88145000D01*
G75*
G02*
X111365000Y-88394999I0J-249999D01*
G01*
X111365000Y-89020001D01*
G75*
G02*
X111115001Y-89270000I-249999J0D01*
G01*
G37*
%TD.AperFunction*%
%TO.P,R1,1*%
%TO.N,Net-(D1-Pad1)*%
%TA.AperFunction,SMDPad,CuDef*%
G36*
G01*
X111115001Y-92195000D02*
X109864999Y-92195000D01*
G75*
G02*
X109615000Y-91945001I0J249999D01*
G01*
X109615000Y-91319999D01*
G75*
G02*
X109864999Y-91070000I249999J0D01*
G01*
X111115001Y-91070000D01*
G75*
G02*
X111365000Y-91319999I0J-249999D01*
G01*
X111365000Y-91945001D01*
G75*
G02*
X111115001Y-92195000I-249999J0D01*
G01*
G37*
%TD.AperFunction*%
%TD*%
D13*
%TO.P,Q1,3*%
%TO.N,Net-(C1-Pad2)*%
X170180000Y-102870000D03*
%TO.P,Q1,2*%
%TO.N,Net-(D4-Pad1)*%
X170180000Y-100330000D03*
D14*
%TO.P,Q1,1*%
%TO.N,Net-(Q1-Pad1)*%
X170180000Y-97790000D03*
%TD*%
D15*
%TO.P,M1,2*%
%TO.N,Net-(D4-Pad1)*%
X170180000Y-87630000D03*
D16*
%TO.P,M1,1*%
%TO.N,Net-(D1-Pad2)*%
X170180000Y-85090000D03*
%TD*%
%TO.P,D4,2*%
%TO.N,Net-(D1-Pad2)*%
%TA.AperFunction,SMDPad,CuDef*%
G36*
G01*
X160476250Y-85910000D02*
X159563750Y-85910000D01*
G75*
G02*
X159320000Y-85666250I0J243750D01*
G01*
X159320000Y-85178750D01*
G75*
G02*
X159563750Y-84935000I243750J0D01*
G01*
X160476250Y-84935000D01*
G75*
G02*
X160720000Y-85178750I0J-243750D01*
G01*
X160720000Y-85666250D01*
G75*
G02*
X160476250Y-85910000I-243750J0D01*
G01*
G37*
%TD.AperFunction*%
%TO.P,D4,1*%
%TO.N,Net-(D4-Pad1)*%
%TA.AperFunction,SMDPad,CuDef*%
G36*
G01*
X160476250Y-87785000D02*
X159563750Y-87785000D01*
G75*
G02*
X159320000Y-87541250I0J243750D01*
G01*
X159320000Y-87053750D01*
G75*
G02*
X159563750Y-86810000I243750J0D01*
G01*
X160476250Y-86810000D01*
G75*
G02*
X160720000Y-87053750I0J-243750D01*
G01*
X160720000Y-87541250D01*
G75*
G02*
X160476250Y-87785000I-243750J0D01*
G01*
G37*
%TD.AperFunction*%
%TD*%
%TO.P,D3,2*%
%TO.N,Net-(D3-Pad2)*%
%TA.AperFunction,SMDPad,CuDef*%
G36*
G01*
X158626250Y-93160000D02*
X159538750Y-93160000D01*
G75*
G02*
X159782500Y-93403750I0J-243750D01*
G01*
X159782500Y-93891250D01*
G75*
G02*
X159538750Y-94135000I-243750J0D01*
G01*
X158626250Y-94135000D01*
G75*
G02*
X158382500Y-93891250I0J243750D01*
G01*
X158382500Y-93403750D01*
G75*
G02*
X158626250Y-93160000I243750J0D01*
G01*
G37*
%TD.AperFunction*%
%TO.P,D3,1*%
%TO.N,/2D*%
%TA.AperFunction,SMDPad,CuDef*%
G36*
G01*
X158626250Y-91285000D02*
X159538750Y-91285000D01*
G75*
G02*
X159782500Y-91528750I0J-243750D01*
G01*
X159782500Y-92016250D01*
G75*
G02*
X159538750Y-92260000I-243750J0D01*
G01*
X158626250Y-92260000D01*
G75*
G02*
X158382500Y-92016250I0J243750D01*
G01*
X158382500Y-91528750D01*
G75*
G02*
X158626250Y-91285000I243750J0D01*
G01*
G37*
%TD.AperFunction*%
%TD*%
%TO.P,D2,2*%
%TO.N,/2D*%
%TA.AperFunction,SMDPad,CuDef*%
G36*
G01*
X144903750Y-92260000D02*
X143991250Y-92260000D01*
G75*
G02*
X143747500Y-92016250I0J243750D01*
G01*
X143747500Y-91528750D01*
G75*
G02*
X143991250Y-91285000I243750J0D01*
G01*
X144903750Y-91285000D01*
G75*
G02*
X145147500Y-91528750I0J-243750D01*
G01*
X145147500Y-92016250D01*
G75*
G02*
X144903750Y-92260000I-243750J0D01*
G01*
G37*
%TD.AperFunction*%
%TO.P,D2,1*%
%TO.N,Net-(D2-Pad1)*%
%TA.AperFunction,SMDPad,CuDef*%
G36*
G01*
X144903750Y-94135000D02*
X143991250Y-94135000D01*
G75*
G02*
X143747500Y-93891250I0J243750D01*
G01*
X143747500Y-93403750D01*
G75*
G02*
X143991250Y-93160000I243750J0D01*
G01*
X144903750Y-93160000D01*
G75*
G02*
X145147500Y-93403750I0J-243750D01*
G01*
X145147500Y-93891250D01*
G75*
G02*
X144903750Y-94135000I-243750J0D01*
G01*
G37*
%TD.AperFunction*%
%TD*%
%TO.P,D1,2*%
%TO.N,Net-(D1-Pad2)*%
%TA.AperFunction,SMDPad,CuDef*%
G36*
G01*
X110985000Y-81775000D02*
X109735000Y-81775000D01*
G75*
G02*
X109485000Y-81525000I0J250000D01*
G01*
X109485000Y-80775000D01*
G75*
G02*
X109735000Y-80525000I250000J0D01*
G01*
X110985000Y-80525000D01*
G75*
G02*
X111235000Y-80775000I0J-250000D01*
G01*
X111235000Y-81525000D01*
G75*
G02*
X110985000Y-81775000I-250000J0D01*
G01*
G37*
%TD.AperFunction*%
%TO.P,D1,1*%
%TO.N,Net-(D1-Pad1)*%
%TA.AperFunction,SMDPad,CuDef*%
G36*
G01*
X110985000Y-84575000D02*
X109735000Y-84575000D01*
G75*
G02*
X109485000Y-84325000I0J250000D01*
G01*
X109485000Y-83575000D01*
G75*
G02*
X109735000Y-83325000I250000J0D01*
G01*
X110985000Y-83325000D01*
G75*
G02*
X111235000Y-83575000I0J-250000D01*
G01*
X111235000Y-84325000D01*
G75*
G02*
X110985000Y-84575000I-250000J0D01*
G01*
G37*
%TD.AperFunction*%
%TD*%
%TO.P,C2,2*%
%TO.N,Net-(C1-Pad2)*%
%TA.AperFunction,SMDPad,CuDef*%
G36*
G01*
X153662499Y-113410000D02*
X158562501Y-113410000D01*
G75*
G02*
X158812500Y-113659999I0J-249999D01*
G01*
X158812500Y-115135001D01*
G75*
G02*
X158562501Y-115385000I-249999J0D01*
G01*
X153662499Y-115385000D01*
G75*
G02*
X153412500Y-115135001I0J249999D01*
G01*
X153412500Y-113659999D01*
G75*
G02*
X153662499Y-113410000I249999J0D01*
G01*
G37*
%TD.AperFunction*%
%TO.P,C2,1*%
%TO.N,Net-(C2-Pad1)*%
%TA.AperFunction,SMDPad,CuDef*%
G36*
G01*
X153662499Y-108135000D02*
X158562501Y-108135000D01*
G75*
G02*
X158812500Y-108384999I0J-249999D01*
G01*
X158812500Y-109860001D01*
G75*
G02*
X158562501Y-110110000I-249999J0D01*
G01*
X153662499Y-110110000D01*
G75*
G02*
X153412500Y-109860001I0J249999D01*
G01*
X153412500Y-108384999D01*
G75*
G02*
X153662499Y-108135000I249999J0D01*
G01*
G37*
%TD.AperFunction*%
%TD*%
%TO.P,C1,2*%
%TO.N,Net-(C1-Pad2)*%
%TA.AperFunction,SMDPad,CuDef*%
G36*
G01*
X109309999Y-100710000D02*
X114210001Y-100710000D01*
G75*
G02*
X114460000Y-100959999I0J-249999D01*
G01*
X114460000Y-102435001D01*
G75*
G02*
X114210001Y-102685000I-249999J0D01*
G01*
X109309999Y-102685000D01*
G75*
G02*
X109060000Y-102435001I0J249999D01*
G01*
X109060000Y-100959999D01*
G75*
G02*
X109309999Y-100710000I249999J0D01*
G01*
G37*
%TD.AperFunction*%
%TO.P,C1,1*%
%TO.N,/C1*%
%TA.AperFunction,SMDPad,CuDef*%
G36*
G01*
X109309999Y-95435000D02*
X114210001Y-95435000D01*
G75*
G02*
X114460000Y-95684999I0J-249999D01*
G01*
X114460000Y-97160001D01*
G75*
G02*
X114210001Y-97410000I-249999J0D01*
G01*
X109309999Y-97410000D01*
G75*
G02*
X109060000Y-97160001I0J249999D01*
G01*
X109060000Y-95684999D01*
G75*
G02*
X109309999Y-95435000I249999J0D01*
G01*
G37*
%TD.AperFunction*%
%TD*%
D17*
%TO.N,*%
X111690010Y-83466820D02*
X111223180Y-82999990D01*
X111690010Y-89258180D02*
X111690010Y-83466820D01*
X110778190Y-90170000D02*
X111690010Y-89258180D01*
X110490000Y-90170000D02*
X110778190Y-90170000D01*
%TO.N,Net-(C1-Pad2)*%
X164715000Y-102870000D02*
X163830000Y-101985000D01*
X170180000Y-102870000D02*
X164715000Y-102870000D01*
X156112500Y-113123190D02*
X156112500Y-114397500D01*
X163830000Y-105405690D02*
X156112500Y-113123190D01*
X163830000Y-101985000D02*
X163830000Y-105405690D01*
X156112500Y-114397500D02*
X147417500Y-114397500D01*
X134717500Y-101697500D02*
X111760000Y-101697500D01*
X147417500Y-114397500D02*
X134717500Y-101697500D01*
X96617500Y-101697500D02*
X91440000Y-96520000D01*
X111760000Y-101697500D02*
X96617500Y-101697500D01*
%TO.N,/C1*%
X112492500Y-97155000D02*
X111760000Y-96422500D01*
X129605000Y-97155000D02*
X112492500Y-97155000D01*
%TO.N,Net-(C2-Pad1)*%
X156112500Y-103792500D02*
X153670000Y-101350000D01*
X156112500Y-109122500D02*
X156112500Y-103792500D01*
X130249990Y-100339990D02*
X129605000Y-99695000D01*
X152659990Y-100339990D02*
X130249990Y-100339990D01*
X153670000Y-101350000D02*
X152659990Y-100339990D01*
%TO.N,Net-(D1-Pad2)*%
X91440000Y-87630000D02*
X91440000Y-85090000D01*
X95380000Y-81150000D02*
X110360000Y-81150000D01*
X91440000Y-85090000D02*
X95380000Y-81150000D01*
X136905000Y-81150000D02*
X138045000Y-80010000D01*
X110360000Y-81150000D02*
X136905000Y-81150000D01*
X153407490Y-78809990D02*
X160020000Y-85422500D01*
X139245010Y-78809990D02*
X153407490Y-78809990D01*
X138045000Y-80010000D02*
X139245010Y-78809990D01*
X169847500Y-85422500D02*
X170180000Y-85090000D01*
X160020000Y-85422500D02*
X169847500Y-85422500D01*
%TO.N,Net-(D1-Pad1)*%
X110490000Y-90806410D02*
X110490000Y-91632500D01*
X109289990Y-89606400D02*
X110490000Y-90806410D01*
X109289990Y-85020010D02*
X109289990Y-89606400D01*
X110360000Y-83950000D02*
X109289990Y-85020010D01*
%TO.N,/2D*%
X140970000Y-88295000D02*
X144447500Y-91772500D01*
X140970000Y-80010000D02*
X140970000Y-88295000D01*
X140970000Y-88035000D02*
X140970000Y-80010000D01*
X130580000Y-98425000D02*
X140970000Y-88035000D01*
X129605000Y-98425000D02*
X130580000Y-98425000D01*
X144447500Y-91772500D02*
X157812500Y-91772500D01*
X157812500Y-91772500D02*
X159082500Y-91772500D01*
%TO.N,Net-(D2-Pad1)*%
X147320000Y-96520000D02*
X144447500Y-93647500D01*
X151130000Y-96520000D02*
X147320000Y-96520000D01*
%TO.N,Net-(D3-Pad2)*%
X159082500Y-93647500D02*
X156210000Y-96520000D01*
%TO.N,Net-(D4-Pad1)*%
X160352500Y-87630000D02*
X160020000Y-87297500D01*
X170180000Y-87630000D02*
X160352500Y-87630000D01*
X168854999Y-99004999D02*
X170180000Y-100330000D01*
X168854999Y-88955001D02*
X168854999Y-99004999D01*
X170180000Y-87630000D02*
X168854999Y-88955001D01*
%TO.N,Net-(Q1-Pad1)*%
X163195000Y-98425000D02*
X163830000Y-99060000D01*
X134555000Y-98425000D02*
X163195000Y-98425000D01*
X171405001Y-87041999D02*
X171405001Y-96564999D01*
X170768001Y-86404999D02*
X171405001Y-87041999D01*
X159408151Y-86404999D02*
X170768001Y-86404999D01*
X158994990Y-86818160D02*
X159408151Y-86404999D01*
X171405001Y-96564999D02*
X170180000Y-97790000D01*
X163830000Y-92611850D02*
X158994990Y-87776840D01*
X158994990Y-87776840D02*
X158994990Y-86818160D01*
X163830000Y-99060000D02*
X163830000Y-92611850D01*
%TO.N,/VCC*%
X134178232Y-99695000D02*
X134555000Y-99695000D01*
X133254990Y-98771758D02*
X134178232Y-99695000D01*
X133254990Y-97480010D02*
X133254990Y-98771758D01*
X133580000Y-97155000D02*
X133254990Y-97480010D01*
X134555000Y-97155000D02*
X133580000Y-97155000D01*
X129228232Y-100965000D02*
X129605000Y-100965000D01*
X128304990Y-99348242D02*
X128304990Y-100041758D01*
X128583242Y-99069990D02*
X128304990Y-99348242D01*
X133929990Y-99069990D02*
X128583242Y-99069990D01*
X128304990Y-100041758D02*
X129228232Y-100965000D01*
X134555000Y-99695000D02*
X133929990Y-99069990D01*
%TD*%
M02*
